<?xml version="1.0" encoding="UTF-8"?>
<svg id="Layer_1" data-name="Layer 1" xmlns="http://www.w3.org/2000/svg" viewBox="0 0 18.24 24.0">
  <defs>
    <style>
      .cls-1 {
        fill: none;
        stroke: #fff;
        stroke-miterlimit: 10;
        stroke-width: .22px;
      }
      .garbage_can {
        fill: DarkGreen;
      }
      /*.garbage_can_wheel {
        stroke: Black;
        fill: Black;
      }*/
    </style>
  </defs>
  <g>
    <path class="garbage_can" d="m18.19,13.64c-.03-.17-2.36-12.15-2.56-12.78-.06-.2-.17-.29-.58-.17-.2.06-.26-.03-.31-.14-.05-.11-.06-.2-.11-.3-.1-.21-.27-.3-.48-.24-.09.02-.16.05-.25.09-.08.04-.13.11-.1.22.11.38.26.82.36,1.21.02.09-.02.19-.1.19-4.59-.02-9.22.03-13.8.04-.17,0-.23.12-.24.24-.03.42.03.85.1,1.23.03.16.1.18.23.21.13.02.32.01.45.02.13,0,.22.12.23.23.04.27.08.86.1,1.07.07.9.1,2.41.11,3.28.02,3.52.17,9.8.26,12.4.08,2.6-.03.4.05,1.49.07.92.27.87.77.87,1.76.01,3.73-.04,5.52-.04.75,0,.91-.6.83-1.19,0,0,0,0,0-.01-.31-1.57.53-2.64,2.02-2.9.4-.07.65-.43.7-.96.15-1.67.35-3.88.5-5.51.24-2.57.45-4.81.68-7.3.03-.29.19-.23.39-.47.11-.13.14-.56.14-.8,0-.11.1-.24.24-.24.3,0,.65.02.94-.02.16-.02.26-.07.33-.23.12-.29.07-.71.14-1.03.04.11,2.15,11.83,2.18,11.97.08.43.15.52.79.38s.57-.31.49-.81ZM14.23.65c-.12,0-.22-.11-.22-.23,0-.13.1-.23.22-.23s.22.11.22.24c0,.13-.1.23-.22.23Z"/>
    <path class="garbage_can_wheel" d="m10.54,19.04c.96,0,1.71.79,1.71,1.79,0,1-.76,1.8-1.71,1.79-.95,0-1.69-.78-1.7-1.77-.01-1,.74-1.8,1.7-1.81Z"/>
  </g>
  <path class="cls-1" d="m12.53,4.32H1.4s-.03-.01-.03-.03l-.1-.7s.02-.05.04-.05h11.26s.08.04.07.09l-.08.66s-.01.03-.03.03Z"/>
  <path class="cls-1" d="m11.57,8.89l-9.86-.03s-.07-.03-.07-.07l-.19-4.01s.03-.08.07-.08h10.54s.08.03.07.08l-.49,4.04s-.03.06-.07.06Z"/>
  <path class="cls-1" d="m1.81,9.32l9.32-.05c.1,0,.14.12.07.19-.79.69-3.52,3.17-4.75,5.58-1.31,2.57-1.58,6.45-1.62,7.12,0,.06-.05.1-.1.1l-2.59.03c-.06,0-.1-.05-.1-.1l-.32-12.75c0-.06.04-.11.1-.11Z"/>
</svg>
