<?xml version="1.0" encoding="utf-8"?>
<!-- Generator: Adobe Illustrator 27.2.0, SVG Export Plug-In . SVG Version: 6.00 Build 0)  -->
<svg version="1.1" id="Layer_1" xmlns="http://www.w3.org/2000/svg" xmlns:xlink="http://www.w3.org/1999/xlink" x="0px" y="0px"
	 viewBox="40 44 200 200" style="enable-background:new 0 0 288 288;" xml:space="preserve">

 <style type="text/css">
	.garbage_can{fill:DarkGreen;}
</style>
<g>
	<path class="garbage_can" d="M176,125.2c0-0.2-0.2-0.4-0.5-0.4l-84.1-0.2c-0.2,0-0.3,0.1-0.4,0.2c-0.1,0.1-0.2,0.2-0.2,0.4L93.4,234
		c0,0.3,0.2,0.5,0.5,0.5c0,0,0,0,0,0l24.1-0.4c0.3,0,0.5-0.2,0.5-0.5c0-16.9,3.3-42.5,19.1-68.1c9.6-15.6,22.8-29.3,38.2-39.7
		C176.1,125.6,176.1,125.4,176,125.2z M176,125.2c0-0.2-0.2-0.4-0.5-0.4l-84.1-0.2c-0.2,0-0.3,0.1-0.4,0.2c-0.1,0.1-0.2,0.2-0.2,0.4
		L93.4,234c0,0.3,0.2,0.5,0.5,0.5c0,0,0,0,0,0l24.1-0.4c0.3,0,0.5-0.2,0.5-0.5c0-16.9,3.3-42.5,19.1-68.1
		c9.6-15.6,22.8-29.3,38.2-39.7C176.1,125.6,176.1,125.4,176,125.2z M176,125.2c0-0.2-0.2-0.4-0.5-0.4l-84.1-0.2
		c-0.2,0-0.3,0.1-0.4,0.2c-0.1,0.1-0.2,0.2-0.2,0.4L93.4,234c0,0.3,0.2,0.5,0.5,0.5c0,0,0,0,0,0l24.1-0.4c0.3,0,0.5-0.2,0.5-0.5
		c0-16.9,3.3-42.5,19.1-68.1c9.6-15.6,22.8-29.3,38.2-39.7C176.1,125.6,176.1,125.4,176,125.2z M182.9,85.6
		c-0.1-0.1-0.2-0.2-0.4-0.2l-93.1-0.2c-0.2,0-0.3,0.1-0.4,0.2c-0.1,0.1-0.2,0.2-0.2,0.4l1.4,34.1c0,0.3,0.2,0.5,0.5,0.5h88.1
		c0.3,0,0.5-0.2,0.5-0.5l3.6-33.9C183.1,85.9,183,85.7,182.9,85.6z M182.9,85.6c-0.1-0.1-0.2-0.2-0.4-0.2l-93.1-0.2
		c-0.2,0-0.3,0.1-0.4,0.2c-0.1,0.1-0.2,0.2-0.2,0.4l1.4,34.1c0,0.3,0.2,0.5,0.5,0.5h88.1c0.3,0,0.5-0.2,0.5-0.5l3.6-33.9
		C183.1,85.9,183,85.7,182.9,85.6z M176,125.2c0-0.2-0.2-0.4-0.5-0.4l-84.1-0.2c-0.2,0-0.3,0.1-0.4,0.2c-0.1,0.1-0.2,0.2-0.2,0.4
		L93.4,234c0,0.3,0.2,0.5,0.5,0.5c0,0,0,0,0,0l24.1-0.4c0.3,0,0.5-0.2,0.5-0.5c0-16.9,3.3-42.5,19.1-68.1
		c9.6-15.6,22.8-29.3,38.2-39.7C176.1,125.6,176.1,125.4,176,125.2z M258,155.8l-0.8-1.8c0,0-28.1-67.1-43-102.6
		c-0.5-1.2-1.8-1.8-3-1.3l-2,0.8c-1.1,0.5-2.4-0.1-2.8-1.2c-0.3-0.8-0.6-1.7-1-2.5c-0.7-1.7-2.6-2.6-4.4-2c-0.7,0.2-1.4,0.5-2.2,0.8
		c-0.8,0.2-1.1,1.1-0.9,1.9c0.9,2.6,2.6,7.9,3.3,10.3c0.2,0.5-0.4,1.6-0.9,1.6L77.9,59.9c-1.2,0-2.1,0.9-2.1,2.1
		c-0.2,4,0.5,8.2,1,10.5c0.2,1,1,1.7,2,1.7l4,0.1c1.1,0,2,0.9,2.1,1.9c0.3,2.6,0.7,7.2,0.9,9.2c0.6,9,0.8,18.1,0.9,27.2
		c0.3,36.7,2.4,110.1,2.4,110.1s0.1,4.8,0.3,9c0.1,3.5,3,6.3,6.5,6.3h49.7c5.3,0,9.1-5.3,7.1-10.2c0,0,0-0.1,0-0.1
		c-4.1-10.2,4.7-24.7,17.8-24.5c3.5,0.1,6-4.4,6.3-8c1-11,3.2-34.3,4.5-47.2c2-20.5,4.1-41,6-61.6c0.2-2.4,1.4-2,3.4-3.8
		c1.1-1,1.2-4.4,1.3-6.9c0-1.2,1-2.1,2.2-2.1c2.5,0,6.4,0,8.4-0.2c1.1-0.1,2.4-1,2.9-1.9c0.9-1.7,0.7-6.2,1.2-8.8
		c0.8,1.9,1.2,2.7,1.6,3.5c6.6,15.8,13.3,31.6,19.9,47.5c6.6,15.8,13.3,31.6,19.8,47.5c1.2,3,2.6,3.6,5.4,2.1
		c0.7-0.4,1.5-0.8,2.3-1.1C257.9,161.2,259,158.3,258,155.8z M176.1,126.2c-15.3,10.3-28.5,23.9-38.1,39.5c-15.7,25.6-19,51-19,67.9
		c0,0.6-0.5,1-1,1l-24.1,0.4c0,0,0,0,0,0c-0.6,0-1-0.5-1-1l-2.5-108.9c0-0.3,0.1-0.6,0.3-0.8c0.2-0.2,0.5-0.3,0.8-0.3l84.1,0.2
		c0.5,0,0.9,0.3,1,0.8C176.7,125.5,176.5,125.9,176.1,126.2z M180,119.9c-0.1,0.5-0.5,0.9-1,0.9H90.8c-0.6,0-1-0.4-1-1l-1.4-34.1
		c0-0.3,0.1-0.6,0.3-0.8c0.2-0.2,0.5-0.3,0.8-0.3l93.1,0.2c0.3,0,0.6,0.1,0.8,0.3c0.2,0.2,0.3,0.5,0.3,0.8L180,119.9z M189.4,81.5
		c0,0.4-0.3,0.6-0.7,0.6H88.3c-0.4,0-0.7-0.3-0.7-0.7L87,75.4c0-0.2,0-0.4,0.2-0.6c0.1-0.2,0.3-0.2,0.5-0.2l101.2-0.1
		c0.3,0,0.7,0.2,0.9,0.4c0.2,0.3,0.3,0.6,0.3,1L189.4,81.5z M201.9,50.6c-1.1,0-2-0.9-2-2c0-1.1,0.9-2,2-2c1.1,0,2,0.9,2,2
		C203.9,49.7,203,50.6,201.9,50.6z M188.9,75L87.7,75.1c-0.1,0-0.1,0-0.2,0.1c0,0.1-0.1,0.1-0.1,0.2l0.6,6c0,0.1,0.1,0.2,0.2,0.2
		h100.4c0.1,0,0.2-0.1,0.2-0.2l0.7-5.6c0-0.2,0-0.4-0.2-0.6C189.3,75.1,189.1,75,188.9,75z M182.5,85.4l-93.1-0.2
		c-0.2,0-0.3,0.1-0.4,0.2c-0.1,0.1-0.2,0.2-0.2,0.4l1.4,34.1c0,0.3,0.2,0.5,0.5,0.5h88.1c0.3,0,0.5-0.2,0.5-0.5l3.6-33.9
		c0-0.2,0-0.3-0.1-0.4S182.7,85.4,182.5,85.4z M175.5,124.8l-84.1-0.2c-0.2,0-0.3,0.1-0.4,0.2c-0.1,0.1-0.2,0.2-0.2,0.4L93.4,234
		c0,0.3,0.2,0.5,0.5,0.5c0,0,0,0,0,0l24.1-0.4c0.3,0,0.5-0.2,0.5-0.5c0-16.9,3.3-42.5,19.1-68.1c9.6-15.6,22.8-29.3,38.2-39.7
		c0.2-0.2,0.3-0.4,0.2-0.6C176,125,175.8,124.8,175.5,124.8z M176,125.2c0-0.2-0.2-0.4-0.5-0.4l-84.1-0.2c-0.2,0-0.3,0.1-0.4,0.2
		c-0.1,0.1-0.2,0.2-0.2,0.4L93.4,234c0,0.3,0.2,0.5,0.5,0.5c0,0,0,0,0,0l24.1-0.4c0.3,0,0.5-0.2,0.5-0.5c0-16.9,3.3-42.5,19.1-68.1
		c9.6-15.6,22.8-29.3,38.2-39.7C176.1,125.6,176.1,125.4,176,125.2z M176,125.2c0-0.2-0.2-0.4-0.5-0.4l-84.1-0.2
		c-0.2,0-0.3,0.1-0.4,0.2c-0.1,0.1-0.2,0.2-0.2,0.4L93.4,234c0,0.3,0.2,0.5,0.5,0.5c0,0,0,0,0,0l24.1-0.4c0.3,0,0.5-0.2,0.5-0.5
		c0-16.9,3.3-42.5,19.1-68.1c9.6-15.6,22.8-29.3,38.2-39.7C176.1,125.6,176.1,125.4,176,125.2z M176,125.2c0-0.2-0.2-0.4-0.5-0.4
		l-84.1-0.2c-0.2,0-0.3,0.1-0.4,0.2c-0.1,0.1-0.2,0.2-0.2,0.4L93.4,234c0,0.3,0.2,0.5,0.5,0.5c0,0,0,0,0,0l24.1-0.4
		c0.3,0,0.5-0.2,0.5-0.5c0-16.9,3.3-42.5,19.1-68.1c9.6-15.6,22.8-29.3,38.2-39.7C176.1,125.6,176.1,125.4,176,125.2z M176,125.2
		c0-0.2-0.2-0.4-0.5-0.4l-84.1-0.2c-0.2,0-0.3,0.1-0.4,0.2c-0.1,0.1-0.2,0.2-0.2,0.4L93.4,234c0,0.3,0.2,0.5,0.5,0.5c0,0,0,0,0,0
		l24.1-0.4c0.3,0,0.5-0.2,0.5-0.5c0-16.9,3.3-42.5,19.1-68.1c9.6-15.6,22.8-29.3,38.2-39.7C176.1,125.6,176.1,125.4,176,125.2z"/>
	<path class="garbage_can" d="M169.2,206.1c8.3-0.1,15.4,7,15.4,15.4s-7.1,15.5-15.4,15.4c-8.2-0.1-15.2-7-15.3-15.3
		C153.7,213.4,160.8,206.2,169.2,206.1z"/>
</g>
</svg>
